<svg width="80" height="80" viewBox="0 0 80 80" fill="none" xmlns="http://www.w3.org/2000/svg">
<path d="M40 0C62.0968 0 80 17.9032 80 40C80 62.0968 62.0968 80 40 80C17.9032 80 0 62.0968 0 40C0 17.9032 17.9032 0 40 0ZM58.371 37.2581L36.5161 15.4032C35 13.8871 32.5484 13.8871 31.0484 15.4032L28.3065 18.1452C26.7903 19.6613 26.7903 22.1129 28.3065 23.6129L44.6935 40L28.3065 56.3871C26.7903 57.9032 26.7903 60.3548 28.3065 61.8548L31.0484 64.5968C32.5645 66.1129 35.0161 66.1129 36.5161 64.5968L58.371 42.7419C59.8871 41.2258 59.8871 38.7742 58.371 37.2581Z" fill="white" fill-opacity="0.2"/>
</svg>
