<svg width="80" height="80" viewBox="0 0 80 80" fill="none" xmlns="http://www.w3.org/2000/svg">
<path d="M40 80.4164C17.9032 80.4164 0 62.5132 0 40.4164C0 18.3197 17.9032 0.416443 40 0.416443C62.0968 0.416443 80 18.3197 80 40.4164C80 62.5132 62.0968 80.4164 40 80.4164ZM21.629 43.1584L43.4839 65.0132C45 66.5293 47.4516 66.5293 48.9516 65.0132L51.6935 62.2713C53.2097 60.7551 53.2097 58.3035 51.6935 56.8035L35.3064 40.4164L51.6935 24.0293C53.2097 22.5132 53.2097 20.0616 51.6935 18.5616L48.9516 15.8197C47.4355 14.3035 44.9839 14.3035 43.4839 15.8197L21.629 37.6745C20.1129 39.1906 20.1129 41.6423 21.629 43.1584Z" fill="white" fill-opacity="0.2"/>
</svg>
