<svg width="60" height="42" viewBox="0 0 60 42" fill="none" xmlns="http://www.w3.org/2000/svg">
<path fill-rule="evenodd" clip-rule="evenodd" d="M16.434 10.7967C17.6446 9.57457 17.6446 7.59495 16.434 6.37284L16.3933 6.33121C15.1826 5.1091 13.2212 5.1091 12.0105 6.33121L0.908003 17.5357C-0.302668 18.7578 -0.302668 20.7413 0.908003 21.9634L12.0105 33.1672C13.2212 34.3893 15.1826 34.3893 16.3933 33.1672L16.434 33.1263C17.6446 31.9042 17.6446 29.9246 16.434 28.7025L9.75807 21.9634C8.5474 20.7413 8.5474 18.7578 9.75807 17.5357L16.434 10.7967ZM59.092 17.5357L47.9895 6.33121C46.782 5.1091 44.8174 5.1091 43.6067 6.33121L43.566 6.37284C42.3554 7.59495 42.3554 9.57457 43.566 10.7967L50.2451 17.5357C51.4557 18.7578 51.4557 20.7413 50.2451 21.9634L43.566 28.7025C42.3554 29.9246 42.3554 31.9042 43.566 33.1263L43.6067 33.1672C44.8174 34.3893 46.782 34.3893 47.9895 33.1672L59.092 21.9634C60.3027 20.7413 60.3027 18.7578 59.092 17.5357ZM40.4506 4.44696L24.4641 38.6488C23.9462 39.724 23.0376 41.0526 21.8654 41.0526H21.8033C19.524 41.0526 18.0386 37.9572 19.0464 35.8702L34.9398 1.99219C35.4577 0.920114 37.3774 0.07941 37.3774 0.07941V0C40.4785 0 41.4554 2.35994 40.4506 4.44696Z" fill="white"/>
</svg>
