<svg width="60" height="60" viewBox="0 0 60 60" fill="none" xmlns="http://www.w3.org/2000/svg">
<path d="M55.1987 0.00538092H5.13738C4.49213 -0.0248413 3.84722 0.0724632 3.23963 0.291781C2.63203 0.511098 2.07367 0.848078 1.59645 1.28341C1.11928 1.71879 0.732621 2.244 0.45869 2.82895C0.184759 3.41393 0.0288743 4.04717 0 4.69245V54.863C0.0377991 56.2132 0.591211 57.4982 1.54658 58.4533C2.50194 59.4087 3.78681 59.9621 5.13738 60H55.1987C56.5116 59.9415 57.7494 59.3708 58.6468 58.4105C59.5441 57.4502 60.0294 56.1768 59.9986 54.863V4.69245C60.0095 4.06438 59.8917 3.44078 59.6529 2.85981C59.414 2.27887 59.0589 1.75283 58.6093 1.31394C58.16 0.875076 57.6257 0.532659 57.0392 0.307642C56.4527 0.0826249 55.8265 -0.0202292 55.1987 0.00538092ZM18.7496 50.0259H10.0123V23.2909H18.7496V50.0259ZM14.5872 19.2411C13.9775 19.2624 13.3699 19.1573 12.8028 18.9326C12.2356 18.7078 11.7211 18.3682 11.2915 17.9351C10.8618 17.502 10.5264 16.9847 10.3063 16.4158C10.0861 15.8468 9.98606 15.2385 10.0123 14.629C9.98531 14.013 10.0874 13.3981 10.3121 12.8238C10.5367 12.2495 10.8789 11.7286 11.3168 11.2943C11.7546 10.86 12.2783 10.5221 12.8544 10.3021C13.4306 10.0821 14.0463 9.98502 14.6622 10.017C15.2719 9.99574 15.8794 10.1008 16.4465 10.3255C17.0137 10.5503 17.5283 10.8899 17.9578 11.323C18.3875 11.7561 18.7229 12.2734 18.943 12.8423C19.1632 13.4113 19.2633 14.0196 19.2371 14.629C19.264 15.2451 19.1619 15.86 18.9373 16.4342C18.7126 17.0085 18.3704 17.5295 17.9326 17.9638C17.4947 18.398 16.971 18.736 16.3949 18.956C15.8187 19.176 15.203 19.2731 14.5872 19.2411ZM50.0238 50.0259H41.2491V35.4023C41.2491 31.9151 40.0116 29.5153 36.8992 29.5153C35.9324 29.5235 34.9916 29.8306 34.2063 30.3946C33.4207 30.9585 32.829 31.7516 32.5118 32.665C32.268 33.3497 32.166 34.0767 32.2118 34.8023V50.0259H23.587V23.2909H32.2118V27.0405C32.9786 25.6318 34.1197 24.4626 35.5094 23.6617C36.8992 22.8612 38.4831 22.4602 40.0866 22.5033C45.7489 22.5033 50.0238 26.2531 50.0238 34.2399V50.0259Z" fill="rgb(134, 151, 184, 0.3)"/>
</svg>
