<svg width="90" height="90" viewBox="0 0 90 90" fill="none" xmlns="http://www.w3.org/2000/svg">
<path fill-rule="evenodd" clip-rule="evenodd" d="M42.9431 6.16127C44.2163 5.44689 45.7838 5.44689 47.055 6.16127C53.3456 9.69189 72.2756 20.3194 78.5681 23.85C79.8412 24.5625 80.625 25.8825 80.625 27.3113C80.625 34.3725 80.625 55.6256 80.625 62.6869C80.625 64.1156 79.8412 65.4356 78.5681 66.15C72.2775 69.6806 53.3475 80.3081 47.055 83.8388C45.7819 84.5531 44.2144 84.5531 42.9431 83.8388C36.6525 80.3081 17.7225 69.6806 11.43 66.15C10.1588 65.4356 9.375 64.1175 9.375 62.6888C9.375 55.6275 9.375 34.3744 9.375 27.3131C9.375 25.8844 10.1588 24.5644 11.4319 23.85C17.7206 20.3194 36.6544 9.69189 42.9431 6.16127Z" fill="url(#paint0_linear_98_184)"/>
<path fill-rule="evenodd" clip-rule="evenodd" d="M9.945 64.5075C9.44625 63.84 9.375 63.2062 9.375 62.3531C9.375 55.3331 9.375 34.2019 9.375 27.18C9.375 25.7587 10.1569 24.4462 11.4262 23.7375C17.6944 20.2275 36.5606 9.66185 42.8287 6.14998C44.0981 5.43935 45.8175 5.45435 47.0869 6.16498C53.355 9.67498 72.1575 20.1506 78.4256 23.6606C78.9319 23.9456 79.3181 24.2887 79.6631 24.7406L9.945 64.5075Z" fill="url(#paint1_linear_98_184)"/>
<path fill-rule="evenodd" clip-rule="evenodd" d="M45 18.75C59.4881 18.75 71.25 30.5119 71.25 45C71.25 59.4881 59.4881 71.25 45 71.25C30.5119 71.25 18.75 59.4881 18.75 45C18.75 30.5119 30.5119 18.75 45 18.75ZM45 31.875C52.2431 31.875 58.125 37.755 58.125 45C58.125 52.2431 52.2431 58.125 45 58.125C37.7569 58.125 31.875 52.2431 31.875 45C31.875 37.755 37.755 31.875 45 31.875Z" fill="white"/>
<path fill-rule="evenodd" clip-rule="evenodd" d="M79.6593 24.7594C80.6268 25.665 80.6081 27.03 80.6081 28.1044C80.6081 35.22 80.5481 55.4588 80.6249 62.5744C80.6324 63.3169 80.3868 64.0988 80.0193 64.6875L44.2368 45L79.6593 24.7594Z" fill="url(#paint2_linear_98_184)"/>
<g opacity="0.05">
<path fill-rule="evenodd" clip-rule="evenodd" d="M61.875 39.375V43.125H65.625V46.875H61.875V50.625H58.125V46.875H54.375V43.125H58.125V39.375H61.875ZM63.75 37.5H61.875H58.125H56.25V39.375V41.25H54.375H52.5V43.125V46.875V48.75H54.375H56.25V50.625V52.5H58.125H61.875H63.75V50.625V48.75H65.625H67.5V46.875V43.125V41.25H65.625H63.75V39.375V37.5Z" fill="black"/>
<path fill-rule="evenodd" clip-rule="evenodd" d="M75 39.375V43.125H78.75V46.875H75V50.625H71.25V46.875H67.5V43.125H71.25V39.375H75ZM76.875 37.5H75H71.25H69.375V39.375V41.25H67.5H65.625V43.125V46.875V48.75H67.5H69.375V50.625V52.5H71.25H75H76.875V50.625V48.75H78.75H80.625V46.875V43.125V41.25H78.75H76.875V39.375V37.5Z" fill="black"/>
</g>
<g opacity="0.07">
<path fill-rule="evenodd" clip-rule="evenodd" d="M61.875 39.375V43.125H65.625V46.875H61.875V50.625H58.125V46.875H54.375V43.125H58.125V39.375H61.875ZM62.8125 38.4375H61.875H58.125H57.1875V39.375V42.1875H54.375H53.4375V43.125V46.875V47.8125H54.375H57.1875V50.625V51.5625H58.125H61.875H62.8125V50.625V47.8125H65.625H66.5625V46.875V43.125V42.1875H65.625H62.8125V39.375V38.4375Z" fill="black"/>
<path fill-rule="evenodd" clip-rule="evenodd" d="M75 39.375V43.125H78.75V46.875H75V50.625H71.25V46.875H67.5V43.125H71.25V39.375H75ZM75.9375 38.4375H75H71.25H70.3125V39.375V42.1875H67.5H66.5625V43.125V46.875V47.8125H67.5H70.3125V50.625V51.5625H71.25H75H75.9375V50.625V47.8125H78.75H79.6875V46.875V43.125V42.1875H78.75H75.9375V39.375V38.4375Z" fill="black"/>
</g>
<path fill-rule="evenodd" clip-rule="evenodd" d="M61.875 39.375H58.125V43.125H54.375V46.875H58.125V50.625H61.875V46.875H65.625V43.125H61.875V39.375Z" fill="white"/>
<path fill-rule="evenodd" clip-rule="evenodd" d="M78.75 43.125H75V39.375H71.25V43.125H67.5V46.875H71.25V50.625H75V46.875H78.75V43.125Z" fill="white"/>
<path opacity="0.05" fill-rule="evenodd" clip-rule="evenodd" d="M45 18.75C54.615 18.75 63.0037 23.9456 67.5769 31.6631L56.19 38.1694C53.8819 34.4006 49.7381 31.875 45 31.875C37.755 31.875 31.875 37.755 31.875 45C31.875 52.2431 37.7569 58.125 45 58.125C49.8187 58.125 54.0225 55.515 56.3044 51.6394L67.8019 57.9656C63.2812 65.8913 54.7687 71.25 45 71.25C30.5119 71.25 18.75 59.4881 18.75 45C18.75 30.5119 30.5119 18.75 45 18.75ZM45 16.875C29.4919 16.875 16.875 29.4919 16.875 45C16.875 60.5081 29.4919 73.125 45 73.125C55.0631 73.125 64.425 67.6725 69.4312 58.8937L70.3744 57.24L68.7056 56.3212L57.2081 49.995L55.6125 49.1175L54.6881 50.6869C52.6687 54.1181 48.9562 56.25 45 56.25C38.7975 56.25 33.75 51.2025 33.75 45C33.75 38.7975 38.7975 33.75 45 33.75C48.9356 33.75 52.5206 35.7675 54.5906 39.1481L55.5412 40.7006L57.12 39.7987L68.5069 33.2925L70.1606 32.3475L69.1894 30.7087C64.1344 22.1756 54.8662 16.875 45 16.875Z" fill="black"/>
<path opacity="0.07" fill-rule="evenodd" clip-rule="evenodd" d="M45 18.75C54.615 18.75 63.0037 23.9456 67.5769 31.6631L56.19 38.1694C53.8819 34.4006 49.7381 31.875 45 31.875C37.755 31.875 31.875 37.755 31.875 45C31.875 52.2431 37.7569 58.125 45 58.125C49.8187 58.125 54.0225 55.515 56.3044 51.6394L67.8019 57.9656C63.2812 65.8913 54.7687 71.25 45 71.25C30.5119 71.25 18.75 59.4881 18.75 45C18.75 30.5119 30.5119 18.75 45 18.75ZM45 17.8125C30.0094 17.8125 17.8125 30.0094 17.8125 45C17.8125 59.9906 30.0094 72.1875 45 72.1875C54.7275 72.1875 63.7762 66.915 68.6156 58.4306L69.0881 57.6037L68.2537 57.1444L56.7562 50.8181L55.9594 50.3794L55.4981 51.1631C53.3081 54.8794 49.2862 57.1875 45 57.1875C38.28 57.1875 32.8125 51.72 32.8125 45C32.8125 38.28 38.28 32.8125 45 32.8125C49.2656 32.8125 53.1487 34.9987 55.3912 38.6587L55.8656 39.435L56.655 38.9831L68.0419 32.4769L68.8687 32.0044L68.3831 31.185C63.495 22.9369 54.5362 17.8125 45 17.8125Z" fill="black"/>
<defs>
<linearGradient id="paint0_linear_98_184" x1="9.375" y1="45" x2="80.625" y2="45" gradientUnits="userSpaceOnUse">
<stop offset="0.002" stop-color="#427FDB"/>
<stop offset="0.397" stop-color="#2668CB"/>
<stop offset="0.763" stop-color="#1358BF"/>
<stop offset="1" stop-color="#0C52BB"/>
</linearGradient>
<linearGradient id="paint1_linear_98_184" x1="9.375" y1="35.0662" x2="79.6631" y2="35.0662" gradientUnits="userSpaceOnUse">
<stop stop-color="#32BDEF"/>
<stop offset="1" stop-color="#1EA2E4"/>
</linearGradient>
<linearGradient id="paint2_linear_98_184" x1="44.2368" y1="44.7225" x2="80.6249" y2="44.7225" gradientUnits="userSpaceOnUse">
<stop stop-color="#2AA4F4"/>
<stop offset="1" stop-color="#007AD9"/>
</linearGradient>
</defs>
</svg>
