<svg width="90" height="90" viewBox="0 0 90 90" fill="none" xmlns="http://www.w3.org/2000/svg">
<path d="M42.9431 6.16127C44.2163 5.44689 45.7838 5.44689 47.055 6.16127C53.3456 9.69189 72.2756 20.3194 78.5681 23.85C79.8412 24.5625 80.625 25.8825 80.625 27.3113C80.625 34.3725 80.625 55.6256 80.625 62.6869C80.625 64.1156 79.8412 65.4356 78.5681 66.15C72.2775 69.6806 53.3475 80.3081 47.055 83.8388C45.7819 84.5531 44.2144 84.5531 42.9431 83.8388C36.6525 80.3081 17.7225 69.6806 11.43 66.15C10.1588 65.4356 9.375 64.1175 9.375 62.6888C9.375 55.6275 9.375 34.3744 9.375 27.3131C9.375 25.8844 10.1588 24.5644 11.4319 23.85C17.7206 20.3194 36.6544 9.69189 42.9431 6.16127Z" fill="#00C853"/>
<path d="M9.945 64.5075C9.44625 63.84 9.375 63.2062 9.375 62.3531C9.375 55.3331 9.375 34.2019 9.375 27.18C9.375 25.7587 10.1569 24.4462 11.4262 23.7375C17.6944 20.2275 36.5606 9.66185 42.8287 6.14998C44.0981 5.43935 45.8175 5.45435 47.0869 6.16498C53.355 9.67498 72.1575 20.1506 78.4256 23.6606C78.9319 23.9456 79.3181 24.2887 79.6631 24.7406L9.945 64.5075Z" fill="#69F0AE"/>
<path d="M45.25 19C30.7563 19 19 30.7563 19 45.25C19 59.7438 30.7563 71.5 45.25 71.5C59.7438 71.5 71.5 59.7438 71.5 45.25C71.5 30.7563 59.7438 19 45.25 19ZM45.25 58.375C38.0125 58.375 32.125 52.4875 32.125 45.25C32.125 38.0125 38.0125 32.125 45.25 32.125C52.4875 32.125 58.375 38.0125 58.375 45.25C58.375 52.4875 52.4875 58.375 45.25 58.375Z" fill="white"/>
<path d="M79.6593 24.7594C80.6268 25.665 80.6081 27.03 80.6081 28.1044C80.6081 35.22 80.5481 55.4588 80.6249 62.5744C80.6324 63.3169 80.3868 64.0988 80.0193 64.6875L44.2368 45L79.6593 24.7594Z" fill="#00E676"/>
<path d="M63.75 37.5H65.625V52.5H63.75V37.5ZM69.375 37.5H71.25V52.5H69.375V37.5Z" fill="white"/>
<path d="M60 46.875H75V48.75H60V46.875ZM60 41.25H75V43.125H60V41.25Z" fill="white"/>
</svg>
