<svg width="90" height="59" viewBox="0 0 90 59" fill="none" xmlns="http://www.w3.org/2000/svg">
<path d="M46.7497 18.3898H55.943V27.7889H60.591C62.7649 27.7789 64.9229 27.4175 66.9814 26.7185C68.0623 26.3606 69.103 25.8909 70.0865 25.317C68.8285 23.5754 68.0825 21.5167 67.9328 19.3735C67.546 16.2458 68.3492 13.0871 70.1829 10.5241L71.1473 9.40547L72.298 10.3312C75.3496 12.5686 77.4173 15.8999 78.068 19.6274C81.616 18.5377 85.4509 18.8947 88.7367 20.6207L90 21.3471L89.3346 22.6329C87.9886 24.8989 86.0002 26.7144 83.6213 27.8491C81.2425 28.9839 78.5803 29.3869 75.9722 29.0071C68.0003 48.8338 50.6713 58.22 29.6552 58.22C18.7968 58.22 8.83849 54.1602 3.165 44.5297L3.07178 44.3722L2.26174 42.7039C0.393368 38.4554 -0.336684 33.7937 0.143418 29.1775L0.271997 27.7857H8.13131V18.3898H17.3278V9.18688H35.7177V0H46.7497V18.3898Z" fill="#0096E6"/>
<path d="M32.1756 56.6545C27.678 54.7381 24.0721 51.1908 22.0823 46.7251C19.7048 47.3612 17.264 47.731 14.8048 47.8277C13.7333 47.8877 12.6136 47.9177 11.4457 47.9177C10.0913 47.9177 8.66517 47.878 7.16724 47.7988C10.0595 50.8101 13.566 53.1636 17.4485 54.6994C21.3311 56.2352 25.4987 56.9174 29.6683 56.6995C30.5084 56.6995 31.3441 56.6845 32.1756 56.6545Z" fill="white"/>
<path d="M16.3413 20.5853H16.9842V27.2295H16.3413V20.5853ZM15.1327 20.5853H15.7756V27.2295H15.1198V20.5853H15.1327ZM13.9241 20.5853H14.5669V27.2295H13.9241V20.5853ZM12.7154 20.5853H13.3583V27.2295H12.7154V20.5853ZM11.5068 20.5853H12.1497V27.2295H11.5068V20.5853ZM10.3239 20.5853H10.9668V27.2295H10.3239V20.5853ZM9.65527 19.9231H17.6335V27.8917H9.65527V19.9231ZM18.8454 10.7266H26.8172V18.6952H18.8582L18.8454 10.7266ZM25.5218 11.392H26.1647V18.033H25.5218V11.392ZM24.3131 11.392H24.956V18.033H24.3131V11.392ZM23.1045 11.392H23.7474V18.033H23.1045V11.392ZM21.8959 11.392H22.5388V18.033H21.8959V11.392ZM20.6872 11.392H21.3301V18.033H20.6872V11.392ZM19.5043 11.392H20.1472V18.033H19.5043V11.392ZM18.8389 19.9199H26.8108V27.8917H18.8582V19.9231L18.8389 19.9199ZM25.5153 20.5853H26.1582V27.2295H25.5153V20.5853ZM24.3067 20.5853H24.9496V27.2295H24.3067V20.5853ZM23.0981 20.5853H23.741V27.2295H23.0981V20.5853ZM21.8894 20.5853H22.5323V27.2295H21.8894V20.5853ZM20.6808 20.5853H21.3237V27.2295H20.6808V20.5853ZM19.4979 20.5853H20.1408V27.2295H19.4979V20.5853ZM28.029 19.9199H36.0137V27.8917H28.0419V19.9231L28.029 19.9199ZM34.7022 20.5853H35.3708V27.2295H34.7279L34.7022 20.5853ZM33.4936 20.5853H34.1365V27.2295H33.4936V20.5853ZM32.285 20.5853H32.9279V27.2295H32.285V20.5853ZM31.0763 20.5853H31.7192V27.2295H31.0763V20.5853ZM29.8677 20.5853H30.5106V27.2295H29.8677V20.5853ZM28.6848 20.5853H29.3277V27.2295H28.6848V20.5853ZM28.0226 10.7266H36.0137V18.6952H28.0419V10.7266H28.0226ZM34.6958 11.392H35.3708V18.033H34.7279L34.6958 11.392ZM33.4872 11.392H34.1301V18.033H33.4872V11.392ZM32.2785 11.392H32.9214V18.033H32.2785V11.392ZM31.0699 11.392H31.7128V18.033H31.0699V11.392ZM29.8613 11.392H30.5042V18.033H29.8613V11.392ZM28.6784 11.392H29.3212V18.033H28.6784V11.392ZM37.2095 19.9199H45.1781V27.8917H37.2063V19.9231L37.2095 19.9199ZM43.8827 20.5853H44.5256V27.2295H43.8827V20.5853ZM42.674 20.5853H43.3169V27.2295H42.674V20.5853ZM41.4654 20.5853H42.1083V27.2295H41.4654V20.5853ZM40.2568 20.5853H40.8997V27.2295H40.2568V20.5853ZM39.0482 20.5853H39.691V27.2295H39.0482V20.5853ZM37.8652 20.5853H38.4824V27.2295H37.8395V20.5853H37.8652ZM37.2031 10.7266H45.1717V18.6952H37.1999L37.2031 10.7266ZM43.8763 11.392H44.5191V18.033H43.8763V11.392ZM42.6676 11.392H43.3105V18.033H42.6676V11.392ZM41.459 11.392H42.1019V18.033H41.459V11.392ZM40.2504 11.392H40.8932V18.033H40.2504V11.392ZM39.0417 11.392H39.6846V18.033H39.0417V11.392ZM37.8588 11.392H38.476V18.033H37.8331V11.392H37.8588ZM37.1966 1.53326H45.1652V9.5083H37.1934L37.1966 1.53326ZM43.8698 2.19544H44.5127V8.83648H43.8698V2.19544ZM42.6612 2.19544H43.3041V8.83648H42.6612V2.19544ZM41.4526 2.19544H42.0954V8.83648H41.4526V2.19544ZM40.2439 2.19544H40.8868V8.83648H40.2439V2.19544ZM39.0353 2.19544H39.6782V8.83648H39.0353V2.19544ZM37.8524 2.19544H38.4696V8.83648H37.8267V2.19544H37.8524ZM46.3835 19.9199H54.3521V27.8917H46.3803V19.9231L46.3835 19.9199ZM53.0567 20.5853H53.6835V27.2295H53.0406V20.5853H53.0567ZM51.8481 20.5853H52.5103V27.2295H51.8481V20.5853ZM50.6394 20.5853H51.2823V27.2295H50.6394V20.5853ZM49.4308 20.5853H50.0737V27.2295H49.4308V20.5853ZM48.2222 20.5853H48.8651V27.2295H48.2061V20.5853H48.2222ZM47.0393 20.5853H47.6822V27.2295H47.0586V20.5853H47.0393Z" fill="white"/>
<path d="M26.332 40.8105C26.7668 40.8105 27.1919 40.9395 27.5535 41.1811C27.9151 41.4227 28.1969 41.7661 28.3633 42.1678C28.5297 42.5696 28.5733 43.0117 28.4884 43.4382C28.4036 43.8647 28.1942 44.2564 27.8867 44.5639C27.5792 44.8714 27.1874 45.0808 26.7609 45.1657C26.3344 45.2505 25.8923 45.207 25.4906 45.0405C25.0888 44.8741 24.7454 44.5923 24.5038 44.2307C24.2623 43.8692 24.1333 43.4441 24.1333 43.0092C24.1333 42.4261 24.3649 41.8669 24.7773 41.4545C25.1896 41.0422 25.7489 40.8105 26.332 40.8105ZM26.332 41.4341C26.5266 41.434 26.7195 41.47 26.9009 41.5402C26.8146 41.5895 26.7408 41.6582 26.6855 41.7409C26.6302 41.8236 26.5948 41.9179 26.5821 42.0166C26.5694 42.1152 26.5798 42.2155 26.6124 42.3095C26.6451 42.4034 26.6991 42.4885 26.7702 42.5581C26.8413 42.6276 26.9276 42.6797 27.0222 42.7103C27.1169 42.7409 27.2173 42.749 27.3157 42.7342C27.414 42.7193 27.5076 42.6819 27.589 42.6247C27.6705 42.5676 27.7375 42.4924 27.7849 42.4049C27.916 42.7166 27.9433 43.0621 27.8629 43.3905C27.7824 43.7189 27.5984 44.0127 27.3381 44.2284C27.0778 44.4441 26.755 44.5704 26.4174 44.5885C26.0797 44.6066 25.7453 44.5155 25.4634 44.3289C25.1815 44.1422 24.9672 43.8698 24.8521 43.5519C24.737 43.2339 24.7272 42.8874 24.8243 42.5636C24.9213 42.2397 25.12 41.9557 25.3909 41.7534C25.6618 41.5512 25.9907 41.4415 26.3288 41.4406L26.332 41.4341Z" fill="white"/>
</svg>
