<svg width="75" height="75" viewBox="0 0 75 75" fill="none" xmlns="http://www.w3.org/2000/svg">
<path d="M73.5808 34.1589L40.8397 1.41789C40.3919 0.96847 39.8597 0.611876 39.2737 0.368562C38.6877 0.125248 38.0595 0 37.425 0C36.7905 0 36.1623 0.125248 35.5763 0.368562C34.9903 0.611876 34.4582 0.96847 34.0103 1.41789L27.2103 8.21785L35.8342 16.8417C36.8511 16.4956 37.9448 16.4421 38.9906 16.6874C40.0365 16.9327 40.9924 17.4668 41.7494 18.2288C42.5065 18.9909 43.0343 19.9504 43.2726 20.9978C43.5109 22.0452 43.4502 23.1385 43.0974 24.1532L51.3999 32.4556C52.6409 32.0293 53.9905 32.0411 55.2239 32.489C56.4573 32.937 57.4999 33.794 58.1781 34.9174C58.8562 36.0408 59.129 37.3626 58.9509 38.6627C58.7728 39.9628 58.1545 41.1625 57.1992 42.0621C56.2439 42.9617 55.0091 43.5067 53.7007 43.6064C52.3923 43.7061 51.0892 43.3545 50.0086 42.6101C48.928 41.8656 48.1351 40.7734 47.7621 39.5154C47.389 38.2573 47.4583 36.9094 47.9584 35.6962L40.205 27.9428V48.3427C41.3795 48.9246 42.3192 49.8914 42.8675 51.082C43.4158 52.2725 43.5397 53.615 43.2185 54.8858C42.8973 56.1566 42.1504 57.279 41.1022 58.066C40.054 58.8531 38.7679 59.2572 37.4579 59.2112C36.1479 59.1651 34.8933 58.6717 33.903 57.813C32.9126 56.9543 32.2464 55.7822 32.0152 54.492C31.784 53.2018 32.0018 51.8713 32.6324 50.7222C33.2629 49.5731 34.2682 48.6747 35.4806 48.1767V27.5893C34.7792 27.3015 34.1416 26.8778 33.6047 26.3425C33.0677 25.8072 32.6419 25.171 32.3519 24.4705C32.0619 23.77 31.9133 23.019 31.9148 22.2608C31.9163 21.5026 32.0678 20.7522 32.3605 20.0528L23.8706 11.5576L1.41924 34.017C0.969412 34.4649 0.612478 34.9973 0.368926 35.5835C0.125374 36.1697 0 36.7982 0 37.433C0 38.0678 0.125374 38.6964 0.368926 39.2826C0.612478 39.8688 0.969412 40.4012 1.41924 40.8491L34.1603 73.5794C34.6081 74.0288 35.1403 74.3854 35.7263 74.6288C36.3123 74.8721 36.9405 74.9973 37.575 74.9973C38.2095 74.9973 38.8377 74.8721 39.4237 74.6288C40.0097 74.3854 40.5418 74.0288 40.9897 73.5794L73.5808 40.9803C74.0306 40.5324 74.3875 40.0001 74.6311 39.4138C74.8746 38.8276 75 38.1991 75 37.5643C75 36.9295 74.8746 36.3009 74.6311 35.7147C74.3875 35.1285 74.0306 34.5961 73.5808 34.1482" fill="#DD4C35"/>
<path d="M28.2103 8.21786L36.8341 16.8417C37.8511 16.4956 38.9448 16.4422 39.9906 16.6874C41.0364 16.9327 41.9924 17.4668 42.7494 18.2289C43.5065 18.9909 44.0343 19.9504 44.2726 20.9978C44.5109 22.0452 44.4502 23.1386 44.0974 24.1532L52.3999 32.4556C53.6409 32.0293 54.9905 32.0411 56.2239 32.489C57.4573 32.937 58.4999 33.7941 59.1781 34.9174C59.8562 36.0408 60.129 37.3626 59.9509 38.6627C59.7727 39.9628 59.1545 41.1625 58.1992 42.0621C57.2438 42.9617 56.0091 43.5067 54.7007 43.6064C53.3923 43.7061 52.0892 43.3545 51.0086 42.6101C49.928 41.8657 49.1351 40.7734 48.762 39.5154C48.389 38.2573 48.4583 36.9094 48.9584 35.6962L41.205 27.9428V48.3427C42.3795 48.9246 43.3192 49.8914 43.8675 51.082C44.4158 52.2725 44.5397 53.615 44.2185 54.8858C43.8973 56.1566 43.1504 57.279 42.1022 58.066C41.054 58.8531 39.7678 59.2572 38.4579 59.2112C37.1479 59.1651 35.8933 58.6717 34.9029 57.813C33.9126 56.9543 33.2463 55.7823 33.0152 54.492C32.784 53.2018 33.0018 51.8714 33.6324 50.7222C34.2629 49.5731 35.2682 48.6747 36.4806 48.1767V27.5893C35.7792 27.3015 35.1416 26.8778 34.6046 26.3425C34.0677 25.8073 33.6419 25.171 33.3519 24.4705C33.0619 23.77 32.9133 23.019 32.9148 22.2608C32.9163 21.5026 33.0678 20.7522 33.3605 20.0528L24.8706 11.5576" fill="white"/>
</svg>
