<svg width="100" height="38" viewBox="0 0 100 38" fill="none" xmlns="http://www.w3.org/2000/svg">
<path d="M7.54685 11.3136C7.35218 11.3136 7.30328 11.2161 7.40077 11.0701L8.42335 9.75532C8.48947 9.67817 8.57164 9.6164 8.66413 9.57433C8.75661 9.53226 8.85717 9.51089 8.95877 9.51174H26.3407C26.5354 9.51174 26.5843 9.65783 26.4868 9.80391L25.6592 11.0697C25.5421 11.2278 25.367 11.3329 25.1724 11.3619L7.54685 11.3136Z" fill="#00ACD7"/>
<path d="M0.194801 15.7918C0.000128515 15.7918 -0.0487758 15.6943 0.0487172 15.5482L1.0713 14.2335C1.13742 14.1563 1.21959 14.0946 1.31208 14.0525C1.40456 14.0104 1.50512 13.9891 1.60672 13.9899H23.8091C23.8468 13.9846 23.8852 13.989 23.9208 14.0027C23.9563 14.0164 23.9878 14.039 24.0122 14.0682C24.0365 14.0975 24.0531 14.1325 24.0602 14.1699C24.0672 14.2073 24.0647 14.2459 24.0527 14.2821L23.663 15.4517C23.6333 15.5426 23.5739 15.6209 23.4942 15.6739C23.4146 15.7269 23.3195 15.7515 23.2241 15.7438L0.194801 15.7918Z" fill="#00ACD7"/>
<path d="M11.9775 20.2712C11.7828 20.2712 11.7339 20.1251 11.8314 19.979L12.5129 18.7618C12.5665 18.6792 12.6382 18.6099 12.7225 18.5593C12.8069 18.5087 12.9017 18.478 12.9998 18.4696H22.7378C22.9325 18.4696 23.03 18.6157 23.03 18.8104L22.9325 19.979C22.9266 20.0675 22.8888 20.1508 22.8261 20.2134C22.7634 20.2761 22.6801 20.3139 22.5917 20.3198L11.9775 20.2712Z" fill="#00ACD7"/>
<path d="M62.5166 10.4359C59.4492 11.2149 57.3554 11.7993 54.3369 12.5783C53.6065 12.7729 53.5579 12.8219 52.9262 12.0914C52.1958 11.2638 51.6604 10.7281 50.6378 10.2419C47.5704 8.73248 44.6005 9.17073 41.8252 10.9723C38.5145 13.1146 36.8095 16.2792 36.859 20.2232C36.9076 24.1182 39.5863 27.3317 43.4321 27.8674C46.7428 28.3063 49.5181 27.137 51.708 24.6539C52.1469 24.1185 52.5356 23.5342 53.0228 22.8523H43.6252C42.6026 22.8523 42.3594 22.2194 42.7001 21.3918C43.3331 19.8824 44.5017 17.3507 45.1832 16.0849C45.2879 15.8503 45.4589 15.6516 45.6752 15.5131C45.8915 15.3747 46.1437 15.3026 46.4005 15.3059H64.1232C64.0257 16.6206 64.0257 17.9351 63.831 19.2498C63.3265 22.7167 61.9531 25.9996 59.8385 28.7928C56.3328 33.4173 51.756 36.2897 45.9622 37.0687C41.1907 37.7017 36.76 36.7766 32.8649 33.8552C31.1338 32.5881 29.6886 30.9709 28.6233 29.1087C27.558 27.2465 26.8964 25.181 26.6815 23.0464C26.0486 17.7394 27.6066 12.9679 30.8195 8.78044C34.2769 4.25251 38.8537 1.38007 44.4519 0.357493C49.0287 -0.4701 53.4106 0.0653278 57.3545 2.74309C59.8767 4.42035 61.8428 6.81017 63.0025 9.60835C63.2956 10.0466 63.1006 10.2902 62.5166 10.4359Z" fill="#00ACD7"/>
<path d="M78.6326 37.3609C74.2018 37.2634 70.1607 35.9976 66.7516 33.0762C63.9159 30.6864 62.0468 27.3462 61.4933 23.6793C60.6155 18.1774 62.1262 13.3087 65.4372 8.97542C68.9914 4.30141 73.2761 1.86691 79.0699 0.844327C84.0361 -0.0334227 88.7104 0.454668 92.9462 3.32742C96.7926 5.95659 99.1782 9.51085 99.8114 14.1849C100.639 20.758 98.7403 26.1135 94.2123 30.6903C91.0377 33.9025 86.9631 36.0756 82.527 36.9223C81.2132 37.1662 79.8987 37.2148 78.6326 37.3609ZM90.2205 17.6909C90.2027 17.153 90.1539 16.6165 90.0744 16.0843C89.1966 11.2642 84.7674 8.53749 80.142 9.60866C75.6141 10.6312 72.6927 13.5037 71.6216 18.0805C71.179 19.896 71.3843 21.809 72.2022 23.4892C73.02 25.1694 74.399 26.5112 76.1009 27.2828C78.7787 28.4514 81.4567 28.3054 84.0373 26.9906C87.8834 24.994 89.9772 21.878 90.2205 17.6909Z" fill="#00ACD7"/>
</svg>
