<svg width="75" height="86" viewBox="0 0 75 86" fill="none" xmlns="http://www.w3.org/2000/svg">
<path d="M3.75586 63.4392L38.2036 3.77639L41.296 5.56187L6.84829 65.2247L3.75586 63.4392Z" fill="#E10098"/>
<path d="M3.04346 58.6724H71.9398V62.2433H3.04346V58.6724Z" fill="#E10098"/>
<path d="M4.40747 60.678L6.19296 57.5856L40.6526 77.4817L38.8671 80.5741L4.40747 60.678Z" fill="#E10098"/>
<path d="M34.3467 8.82227L36.1322 5.72983L70.5918 25.6259L68.8063 28.7183L34.3467 8.82227Z" fill="#E10098"/>
<path d="M4.41699 25.6159L38.8766 5.71982L40.6621 8.81225L6.20248 28.7083L4.41699 25.6159Z" fill="#E10098"/>
<path d="M33.7214 5.56207L36.8139 3.77658L71.2616 63.4394L68.1692 65.2249L33.7214 5.56207Z" fill="#E10098"/>
<path d="M5.77856 23.2465H9.34943V63.0405H5.77856V23.2465Z" fill="#E10098"/>
<path d="M65.6621 23.2465H69.233V63.0405H65.6621V23.2465Z" fill="#E10098"/>
<path d="M36.7019 76.3617L66.6727 59.0574L68.2326 61.759L38.2618 79.0633L36.7019 76.3617Z" fill="#E10098"/>
<path d="M73.9647 64.2017C73.2225 65.4915 72.1142 66.5321 70.7802 67.1918C69.4462 67.8515 67.9465 68.1006 66.4709 67.9076C64.9953 67.7146 63.6101 67.0881 62.4907 66.1075C61.3713 65.1269 60.5679 63.8363 60.1823 62.3989C59.7968 60.9615 59.8463 59.4421 60.3247 58.0329C60.803 56.6237 61.6887 55.3881 62.8696 54.4824C64.0505 53.5768 65.4736 53.0419 66.9586 52.9454C68.4437 52.8489 69.924 53.1951 71.2121 53.9403C72.9362 54.9376 74.1943 56.5781 74.7103 58.5018C75.2263 60.4255 74.9582 62.4754 73.9647 64.2017Z" fill="#E10098"/>
<path d="M14.0392 29.6061C13.2969 30.8959 12.1886 31.9365 10.8547 32.5962C9.52069 33.2559 8.02098 33.505 6.54537 33.312C5.06976 33.119 3.68457 32.4926 2.56515 31.512C1.44572 30.5314 0.642384 29.2407 0.256811 27.8033C-0.128763 26.366 -0.0792353 24.8465 0.399123 23.4373C0.877481 22.0281 1.76316 20.7925 2.94407 19.8869C4.12498 18.9812 5.54802 18.4463 7.03307 18.3498C8.51812 18.2533 9.99842 18.5996 11.2866 19.3447C13.0107 20.342 14.2687 21.9825 14.7848 23.9062C15.3008 25.8299 15.0327 27.8798 14.0392 29.6061Z" fill="#E10098"/>
<path d="M1.04321 64.2016C0.29804 62.9135 -0.0482025 61.4332 0.0483049 59.9481C0.144812 58.4631 0.679731 57.04 1.58535 55.8591C2.49098 54.6782 3.72659 53.7925 5.13579 53.3142C6.545 52.8358 8.06445 52.7863 9.50182 53.1719C10.9392 53.5574 12.2298 54.3608 13.2105 55.4802C14.1911 56.5996 14.8175 57.9848 15.0105 59.4604C15.2035 60.936 14.9544 62.4357 14.2947 63.7697C13.635 65.1037 12.5944 66.212 11.3046 66.9543C9.57828 67.9477 7.52842 68.2158 5.6047 67.6998C3.68098 67.1838 2.04051 65.9257 1.04321 64.2016Z" fill="#E10098"/>
<path d="M60.969 29.6061C60.2238 28.3179 59.8776 26.8376 59.9741 25.3525C60.0706 23.8675 60.6055 22.4444 61.5111 21.2635C62.4168 20.0826 63.6524 19.1969 65.0616 18.7186C66.4708 18.2402 67.9902 18.1907 69.4276 18.5763C70.865 18.9618 72.1556 19.7652 73.1362 20.8846C74.1168 22.004 74.7433 23.3892 74.9363 24.8648C75.1293 26.3404 74.8802 27.8401 74.2205 29.1741C73.5608 30.5081 72.5202 31.6164 71.2303 32.3587C69.5041 33.3521 67.4542 33.6203 65.5305 33.1042C63.6068 32.5882 61.9663 31.3301 60.969 29.6061Z" fill="#E10098"/>
<path d="M37.5042 85.2598C36.0167 85.2598 34.5626 84.8187 33.3259 83.9923C32.0891 83.1659 31.1251 81.9913 30.5559 80.6171C29.9867 79.2428 29.8377 77.7306 30.1279 76.2718C30.4181 74.8129 31.1344 73.4728 32.1862 72.421C33.238 71.3692 34.5781 70.6529 36.037 70.3627C37.4958 70.0725 39.008 70.2215 40.3823 70.7907C41.7565 71.3599 42.9311 72.3239 43.7575 73.5607C44.5839 74.7975 45.025 76.2515 45.025 77.739C45.0277 78.7274 44.8351 79.7066 44.4581 80.6203C44.0812 81.5341 43.5273 82.3643 42.8284 83.0632C42.1295 83.7621 41.2993 84.316 40.3855 84.6929C39.4718 85.0699 38.4926 85.2625 37.5042 85.2598Z" fill="#E10098"/>
<path d="M37.5208 15.0416C36.0333 15.0416 34.5793 14.6005 33.3425 13.7741C32.1057 12.9477 31.1417 11.7731 30.5725 10.3989C30.0033 9.02462 29.8543 7.51244 30.1445 6.05355C30.4347 4.59467 31.151 3.25459 32.2028 2.20279C33.2546 1.15099 34.5947 0.434704 36.0536 0.144513C37.5124 -0.145678 39.0246 0.00325864 40.3989 0.572489C41.7731 1.14172 42.9477 2.10568 43.7741 3.34246C44.6005 4.57925 45.0416 6.03332 45.0416 7.52079C45.0444 8.50921 44.8517 9.48843 44.4747 10.4022C44.0978 11.3159 43.5439 12.1461 42.845 12.845C42.1461 13.5439 41.3159 14.0978 40.4022 14.4747C39.4884 14.8517 38.5092 15.0444 37.5208 15.0416Z" fill="#E10098"/>
</svg>
