<svg width="70" height="95" viewBox="0 0 70 95" fill="none" xmlns="http://www.w3.org/2000/svg">
<path d="M22.541 73.4046C22.541 73.4046 18.9138 75.5131 25.1207 76.2284C31.6706 77.1499 38.3337 76.8673 44.7821 75.3945C46.4478 76.3909 48.1954 77.2437 50.0059 77.9437C31.4259 85.9065 7.95433 77.4826 22.5478 73.4046" fill="#5382A1"/>
<path d="M20.2731 63.0112C20.2731 63.0112 16.2052 66.0214 22.4189 66.6655C30.881 67.6719 39.4517 67.2606 47.7786 65.4485C48.9043 66.4982 50.2335 67.3058 51.6837 67.8214C29.219 74.391 4.19482 68.3401 20.2731 63.0044" fill="#5382A1"/>
<path d="M39.4062 45.3838C40.0082 46.1104 40.456 46.9519 40.7223 47.8571C40.9887 48.7623 41.068 49.7123 40.9554 50.6491C40.8428 51.5859 40.5407 52.4901 40.0675 53.3064C39.5942 54.1227 38.9598 54.8342 38.2028 55.3975C38.2028 55.3975 49.8267 49.3974 44.4876 41.882C39.5011 34.8751 35.6739 31.3903 56.3794 19.3867C56.3794 19.3867 23.8839 27.5021 39.4062 45.3838Z" fill="#5382A1"/>
<path d="M63.9894 81.0895C63.9894 81.0895 66.6742 83.2997 61.0334 85.0116C50.3078 88.2591 16.3954 89.2422 6.97148 85.1404C3.58159 83.6658 9.93424 81.6217 11.9343 81.1946C13.0056 80.9329 14.1062 80.8098 15.2089 80.8285C11.4427 78.1742 -9.13387 86.0387 4.75788 88.2862C42.6433 94.4287 73.8167 85.5235 63.9894 81.0895Z" fill="#5382A1"/>
<path d="M24.2874 52.2449C24.2874 52.2449 7.03623 56.3432 18.1856 57.8314C25.7837 58.4212 33.4191 58.3395 41.0029 57.5873C48.142 56.9839 55.3116 55.7059 55.3116 55.7059C53.8047 56.361 52.3535 57.1376 50.9725 58.028C33.4536 62.6349 -0.387625 60.4925 9.35491 55.7805C13.983 53.4322 19.1044 52.2213 24.2941 52.2483" fill="#5382A1"/>
<path d="M55.2331 69.5434C73.0402 60.289 64.8062 51.3974 59.0603 52.594C58.369 52.722 57.6889 52.9045 57.0264 53.1398C57.4036 52.6041 57.9343 52.1952 58.5484 51.9669C69.9181 47.9702 78.6606 63.7569 54.8772 70.0079C55.0258 69.8763 55.1477 69.7175 55.2365 69.5401" fill="#5382A1"/>
<path d="M44.4905 0C44.4905 0 54.3517 9.86457 35.1378 25.0377C19.7274 37.2074 31.6225 44.1465 35.1378 52.0721C26.1445 43.9567 19.5444 36.8176 23.9716 30.1632C30.47 20.4037 48.477 15.6714 44.4905 0Z" fill="#5382A1"/>
<path d="M26.0366 94.6185C43.1284 95.7134 69.3797 94.0117 70 85.9234C70 85.9234 68.8034 88.9743 55.8743 91.4252C41.5774 93.8822 26.9863 94.1109 12.6194 92.1032C12.6194 92.1032 14.8059 93.91 26.0399 94.632" fill="#5382A1"/>
</svg>
