<svg width="70" height="70" viewBox="0 0 70 70" fill="none" xmlns="http://www.w3.org/2000/svg">
<path d="M0 5C0 2.23858 2.23858 0 5 0H65C67.7614 0 70 2.23858 70 5V65C70 67.7614 67.7614 70 65 70H5C2.23858 70 0 67.7614 0 65V5Z" fill="#F5DE19"/>
<path d="M44.202 56.3303C45.7269 55.4422 47.6742 56.1143 49.0707 57.1931C49.2707 57.3476 49.4793 57.4918 49.6958 57.6251C50.8458 58.3328 52.1724 58.7011 53.5227 58.6876C56.2477 58.6876 57.9902 57.3251 57.9902 55.4376C57.9902 53.1876 56.2002 52.3826 53.2002 51.0701L51.5552 50.3651C46.8052 48.3426 43.6552 45.8101 43.6552 40.4551C43.6552 35.5226 47.4052 31.7651 53.2877 31.7651C55.1919 31.6276 57.0945 32.0537 58.7582 32.9905C59.6567 33.4964 60.4641 34.1392 61.1537 34.8912C62.1564 35.9846 61.6885 37.6425 60.4385 38.4416L59.7748 38.8659C58.5951 39.6201 56.9924 39.0304 55.8279 38.2528C55.0738 37.7491 54.1844 37.4866 53.2777 37.5001C52.8821 37.4605 52.4826 37.5037 52.1046 37.627C51.7266 37.7504 51.3785 37.9511 51.0824 38.2164C50.7863 38.4817 50.5487 38.8057 50.3847 39.1679C50.2208 39.5301 50.1341 39.9225 50.1302 40.3201C50.1302 42.2926 51.3527 43.0926 54.1752 44.3201L55.8202 45.0251C61.4102 47.4226 64.5702 49.8651 64.5702 55.3576C64.5702 61.2801 59.9177 64.5251 53.6702 64.5251C51.2359 64.6802 48.8088 64.1275 46.6817 62.9337C45.4073 62.2185 44.2732 61.2915 43.3245 60.199C42.2558 58.9682 42.7934 57.1507 44.202 56.3303ZM20.902 57.0061C22.4792 56.0496 24.321 56.8254 25.7935 57.9362C26.3761 58.3757 27.0843 58.6401 28.0177 58.6401C30.1777 58.6401 31.5427 57.7951 31.5427 54.5076V35.4288C31.5427 33.6125 33.0151 32.1401 34.8314 32.1401C36.6478 32.1401 38.1202 33.6125 38.1202 35.4288V54.5951C38.1202 61.4051 34.1202 64.5051 28.2977 64.5051C26.2396 64.6176 24.1956 64.1047 22.4344 63.0338C21.5026 62.4672 20.6731 61.7585 19.973 60.9384C18.9015 59.6832 19.4909 57.8618 20.902 57.0061Z" fill="black"/>
</svg>
