<svg width="75" height="75" viewBox="0 0 75 75" fill="none" xmlns="http://www.w3.org/2000/svg">
<path fill-rule="evenodd" clip-rule="evenodd" d="M69.0298 57.1663C65.636 56.9279 62.2305 57.4196 59.0427 58.6084C58.2705 58.9178 57.0383 58.9178 56.9307 59.8944C57.345 60.3061 57.3934 60.9706 57.7567 61.5437C58.4613 62.7368 59.367 63.7991 60.4337 64.6835C61.5099 65.5068 62.5861 66.3274 63.7295 67.0484C65.734 68.2888 68.002 69.0071 69.9553 70.2421C71.0907 70.9631 72.2207 71.8886 73.3561 72.6635C73.9211 73.0751 74.279 73.7397 75 74.0087V73.8527C74.7882 73.2809 74.5262 72.729 74.2171 72.2034C73.7032 71.6922 73.1866 71.2268 72.67 70.7129C71.1609 68.7173 69.3553 66.9644 67.316 65.5149C65.6667 64.3795 62.0614 62.8244 61.3969 60.941L61.292 60.8361C62.4988 60.6651 63.6881 60.3878 64.8461 60.0074C66.5949 59.5447 68.1904 59.6496 69.9903 59.2003C70.8163 58.9931 72.3095 58.4792 72.3095 58.4792V57.6721C71.3894 56.7573 70.7302 55.5332 69.7616 54.6695C67.1265 52.3693 64.3184 50.2753 61.3619 48.4061C59.7826 47.3864 57.7459 46.7299 56.0643 45.8609C55.4563 45.5541 54.4501 45.4035 54.0815 44.8923C53.2451 43.6653 52.5451 42.3509 51.9936 40.9722C50.5192 38.1741 49.0906 35.072 47.8207 32.1125C47.069 30.1291 46.2021 28.1913 45.2244 26.3091C40.5061 18.2873 33.6958 11.6992 25.5219 7.24966C23.4595 6.25136 21.2667 5.54852 19.0082 5.16184C17.733 5.10803 16.463 5.00848 15.1904 4.96005C14.3689 4.42186 13.5875 3.8248 12.8524 3.17357C9.9413 1.33058 2.46174 -2.62982 0.320111 2.61394C-1.05204 5.92593 2.3595 9.18143 3.52986 10.863C4.51672 12.0486 5.38623 13.3272 6.12618 14.6808C6.48402 15.5471 6.58626 16.4646 6.93333 17.3713C7.68017 19.6988 8.56696 21.9791 9.58884 24.1997C10.1354 25.2972 10.765 26.3514 11.4722 27.353C11.8838 27.9153 12.5941 28.1601 12.7475 29.0883C12.1832 30.3011 11.7885 31.5858 11.5744 32.9062C10.6851 35.7147 10.3578 38.671 10.6112 41.6062C10.8646 44.5413 11.6939 47.3977 13.0515 50.0123C13.8586 51.2849 15.8012 54.0857 18.3975 53.0149C20.6871 52.1001 20.1786 49.1971 20.8405 46.6545C20.9911 46.0384 20.8916 45.6348 21.1956 45.2286V45.7236C21.1956 45.7236 22.4951 48.5782 23.1408 50.0284C24.8969 52.6893 27.0783 55.0435 29.598 56.9968C30.5947 57.8669 31.3976 58.9366 31.9549 60.1366V61.0594H33.1037C33.0798 60.6433 32.9644 60.2376 32.7659 59.8712C32.5673 59.5047 32.2904 59.1866 31.9549 58.9393C31.0128 57.9696 30.15 56.926 29.3747 55.8183C27.2687 52.819 25.4115 49.6525 23.8215 46.3505C23.0144 44.7362 22.3337 42.9659 21.688 41.3543C21.392 40.7328 21.392 39.7938 20.8943 39.4709C19.9752 40.5584 19.1777 41.7429 18.5159 43.0036C17.7125 45.5516 17.2449 48.1935 17.1249 50.8625C16.9285 50.9163 17.0254 50.8625 16.9285 50.9647C15.3438 50.5477 14.7976 48.8338 14.2003 47.381C12.6574 42.9001 12.5017 38.058 13.7537 33.4873C14.0981 32.3976 15.5913 28.9646 14.994 27.9234C14.6954 26.9306 13.7026 26.3629 13.1591 25.58C12.4653 24.5267 11.8683 23.4128 11.3753 22.2518C10.1942 19.3569 9.59691 16.1283 8.31086 13.2118C7.59895 11.8091 6.77004 10.469 5.83292 9.20564C4.79632 7.94363 3.88193 6.58601 3.10208 5.15107C2.85455 4.578 2.50748 3.64171 2.90298 3.01752C2.92967 2.84413 3.01213 2.68416 3.13786 2.56182C3.2636 2.43949 3.42576 2.36145 3.59982 2.33951C4.24015 1.76913 6.07776 2.49556 6.72078 2.80766C8.44903 3.48803 10.0952 4.36075 11.6282 5.40936C12.3224 5.93132 13.9582 7.25235 13.9582 7.25235H14.4425C16.0891 7.61018 17.9401 7.35189 19.4898 7.81735C22.0991 8.68716 24.5893 9.88026 26.9021 11.3688C33.719 15.7143 39.2607 21.7908 42.9617 28.978C43.5805 30.1592 43.8415 31.2434 44.4065 32.4757C45.4827 35.0047 46.8279 37.5876 47.9041 40.0467C48.8535 42.4797 50.0814 44.7945 51.5632 46.9451C52.3326 48.0213 55.424 48.5917 56.815 49.1567C58.023 49.5746 59.2084 50.0551 60.3664 50.5961C62.1179 51.6723 63.8641 52.9126 65.5133 54.0937C66.3339 54.7126 68.9087 55.9986 69.0648 57.0291" fill="#00758F"/>
</svg>
