<svg width="70" height="79" viewBox="0 0 70 79" fill="none" xmlns="http://www.w3.org/2000/svg">
<path d="M35 78.9357C33.9351 78.9361 32.8889 78.656 31.9666 78.1237L22.3137 72.4093C20.8732 71.603 21.5751 71.3183 22.0516 71.1519C23.5837 70.6786 25.0507 70.0156 26.4185 69.1785C26.5329 69.1255 26.6591 69.1027 26.7848 69.112C26.9106 69.1214 27.032 69.1627 27.1373 69.2321L34.5546 73.6384C34.6927 73.7115 34.8466 73.7497 35.0028 73.7497C35.1591 73.7497 35.313 73.7115 35.4511 73.6384L64.3758 56.9433C64.5111 56.8622 64.6231 56.7473 64.7007 56.61C64.7783 56.4726 64.8188 56.3174 64.8184 56.1596V22.7637C64.8185 22.6034 64.7773 22.4458 64.6988 22.3061C64.6202 22.1663 64.5071 22.0492 64.3701 21.9659L35.4454 5.28485C35.309 5.20803 35.1551 5.16767 34.9986 5.16767C34.8421 5.16767 34.6882 5.20803 34.5518 5.28485L5.644 21.9715C5.50611 22.0531 5.39161 22.1688 5.3116 22.3076C5.23159 22.4464 5.18877 22.6035 5.18729 22.7637V56.1455C5.18769 56.3029 5.22993 56.4574 5.30968 56.5931C5.38944 56.7289 5.50384 56.841 5.64118 56.9179L13.5743 61.4963C17.8736 63.6445 20.5067 61.1129 20.5067 58.57V25.6111C20.5067 25.5 20.5285 25.39 20.571 25.2874C20.6135 25.1848 20.6758 25.0916 20.7544 25.013C20.8329 24.9345 20.9261 24.8722 21.0288 24.8297C21.1314 24.7872 21.2413 24.7653 21.3524 24.7653H25.0173C25.2416 24.7653 25.4568 24.8544 25.6154 25.013C25.774 25.1716 25.8631 25.3868 25.8631 25.6111V58.5728C25.8631 64.3098 22.7394 67.5941 17.2984 67.5941C14.9511 67.635 12.6406 67.0073 10.6367 65.7842L3.03345 61.423C2.11042 60.8855 1.34453 60.1152 0.812244 59.1892C0.279959 58.2631 -0.000102185 57.2136 2.00494e-05 56.1455V22.7637C-0.00272352 21.6939 0.276153 20.6422 0.808625 19.7144C1.3411 18.7865 2.10841 18.0151 3.03345 17.4778L31.9609 0.776995C32.8928 0.267197 33.9379 0 35 0C36.0622 0 37.1073 0.267197 38.0391 0.776995L66.9638 17.4778C67.8867 18.0142 68.6527 18.7834 69.1855 19.7084C69.7183 20.6335 69.9991 21.6821 70 22.7496V56.1455C69.9984 57.2136 69.7173 58.2627 69.1847 59.1886C68.652 60.1144 67.8864 60.8847 66.9638 61.423L38.0391 78.1237C37.1151 78.6569 36.0668 78.9369 35 78.9357Z" fill="#83CD29"/>
<path d="M29.5139 44.9732C29.5139 44.7489 29.603 44.5337 29.7616 44.3751C29.9202 44.2165 30.1354 44.1274 30.3597 44.1274H34.1007C34.3006 44.1281 34.4938 44.1995 34.646 44.329C34.7983 44.4585 34.8997 44.6378 34.9324 44.835C35.4962 48.6437 37.1877 50.5636 44.8361 50.5636C50.9283 50.5636 53.5248 49.185 53.5248 45.9514C53.5248 44.0879 52.789 42.7037 43.3194 41.7762C35.4032 40.9925 30.5091 39.239 30.5091 32.9128C30.5091 27.0771 35.4285 23.5954 43.6746 23.5954C52.9412 23.5954 57.528 26.8121 58.1088 33.7134C58.1176 33.8286 58.1028 33.9444 58.0652 34.0537C58.0275 34.163 57.9679 34.2633 57.89 34.3487C57.8121 34.434 57.7175 34.5025 57.6121 34.5498C57.5066 34.5972 57.3926 34.6224 57.2771 34.624H53.5107C53.3217 34.6213 53.1391 34.5555 52.992 34.437C52.8448 34.3184 52.7416 34.154 52.6988 33.9699C51.7995 29.9639 49.5977 28.684 43.6774 28.684C37.0242 28.684 36.2517 31.0014 36.2517 32.738C36.2517 34.8411 37.1651 35.4556 46.147 36.6425C55.0359 37.8181 59.259 39.4814 59.259 45.7287C59.259 52.0324 54.004 55.6409 44.8389 55.6409C32.1668 55.6578 29.5139 49.8475 29.5139 44.9732Z" fill="#83CD29"/>
</svg>
