<svg width="75" height="79" viewBox="0 0 75 79" fill="none" xmlns="http://www.w3.org/2000/svg">
<path d="M74.9023 47.6649C74.5767 46.1903 73.2391 44.4702 70.5406 44.4702C69.9892 44.4702 69.3862 44.5396 68.6996 44.6819C67.4402 44.9416 66.3675 45.0679 65.423 45.1105C72.7748 32.5877 77.5473 15.1928 72.8211 9.15374C66.5934 1.19714 58.2099 0.00889424 53.7683 0.00889424L53.3502 0.0106729C51.6977 0.037355 49.983 0.240139 48.2575 0.613689L41.884 1.99048C41.016 1.88198 40.1319 1.80549 39.2105 1.78948H39.1287L38.8583 1.7877C36.0247 1.7877 33.4401 2.38894 31.1365 3.51848L28.9112 2.64153C25.8517 1.4355 21.2481 0 16.6944 0C16.4382 0 16.1838 0.00533666 15.9277 0.0142307C11.4415 0.176102 7.58865 1.87842 4.78347 4.93619C1.28278 8.75351 -0.311035 14.3372 0.0500626 21.5342C0.0678507 21.906 4.42237 58.7113 16.7655 58.7113H16.81L16.9238 58.7095C18.5265 58.6704 20.0545 58.0265 21.4829 56.7938C22.5733 57.612 23.9839 58.0958 25.2984 58.288C26.1665 58.4925 27.7283 58.7825 29.5996 58.7825C31.8836 58.7825 33.9435 58.3146 35.7187 57.4697C35.7169 59.035 35.708 61.0166 35.6902 63.5497L35.6885 63.6831L35.6974 63.8165C35.8699 66.3406 36.3057 68.6157 36.9621 70.3998C38.8316 75.4855 42.0601 78.2871 46.0536 78.2871C46.219 78.2871 46.388 78.2817 46.5588 78.2711C49.8424 78.0683 53.1706 76.2237 55.4599 73.3402C57.9378 70.2184 58.5106 66.9241 58.7311 64.3999L58.7454 64.2452V56.8329L58.9286 56.8507L59.7041 56.9183L59.7788 56.9254L59.8536 56.9289C60.0741 56.9396 60.3018 56.9432 60.5313 56.9432C63.2119 56.9432 66.5116 56.2477 68.7423 55.2106C70.875 54.2216 75.749 51.5036 74.9023 47.6649Z" fill="white"/>
<path d="M55.1877 55.1537C55.1877 54.789 55.2091 54.4849 55.2198 54.1487C55.202 53.7022 55.1877 53.3749 55.1877 53.3749C55.1877 53.3749 55.2091 53.3589 55.2447 53.3358C55.5097 48.581 56.8207 46.7488 58.2242 45.7047C58.0285 45.4325 57.8026 45.139 57.5909 44.8597C56.9986 44.0824 56.2604 43.1183 55.4706 41.882L55.3247 41.601C55.2055 41.3092 54.9174 40.8058 54.5509 40.1441C52.4466 36.3375 48.0672 28.4182 51.0645 23.4162C52.3772 21.2247 54.8391 19.9618 58.3949 19.6505C56.9417 15.5183 51.4967 5.55166 39.1518 5.34709C39.1482 5.34709 39.1447 5.34709 39.1411 5.34709C28.3954 5.17277 24.8644 14.9384 23.7153 20.7729C25.2985 20.1023 27.1057 19.695 28.76 19.695C28.7849 19.695 28.8116 19.695 28.8365 19.695C32.91 19.7252 35.7116 21.8989 36.5263 25.6611C37.1222 28.4218 37.4086 30.8374 37.4015 33.0485C37.3837 37.885 36.4089 40.4287 35.5479 42.6736L35.274 43.3993C35.0534 43.9935 34.8204 44.5467 34.5998 45.0661C34.3757 45.5962 34.1783 46.0675 34.0342 46.4927C34.8951 46.6884 35.5711 46.9641 36.0353 47.1686L36.3039 47.286C36.3875 47.3216 36.4711 47.3625 36.5476 47.4088C38.0561 48.3266 38.9953 49.7372 39.1963 51.3808C39.3048 52.2667 39.287 58.3057 39.2496 63.5746C39.4044 65.8603 39.7922 67.7797 40.3045 69.1707C41.032 71.1523 42.8499 74.9358 46.3417 74.7188C48.7787 74.5676 51.1214 73.0841 52.6761 71.1274C54.3446 69.0266 54.9601 66.7035 55.1913 64.0869V55.1537H55.1877Z" fill="#0277BD"/>
<path d="M23.372 46.112C20.5028 43.1183 19.1046 39.0911 19.6294 35.3396C20.1364 31.7197 19.85 28.1763 19.6952 26.2712C19.6436 25.6362 19.6098 25.163 19.6116 24.9015C19.6116 24.8873 19.6152 24.8748 19.6169 24.8606C19.6169 24.8535 19.6134 24.8482 19.6134 24.841C19.8286 19.4673 21.9009 10.9895 27.6056 5.95011C24.8271 4.85614 20.3018 3.41353 16.054 3.56829C9.39769 3.81021 2.95485 8.41376 3.60234 21.3564C3.84604 26.2125 9.33366 55.3369 16.8367 55.1537C17.9093 55.127 19.0228 54.4386 20.1666 53.0618C21.9756 50.8863 23.7331 48.9136 24.9836 47.5404C24.4233 47.1153 23.8825 46.6457 23.372 46.112ZM62.3439 20.8779C62.3706 21.1518 62.3474 21.3866 62.3048 21.6036C62.3599 23.2401 62.1838 24.8286 62.0041 26.3655C61.8725 27.4968 61.7373 28.6655 61.7 29.8377C61.6626 30.985 61.8245 32.1181 61.9952 33.3171C62.3955 36.124 62.8117 39.2921 60.6344 42.9884C61.0347 43.515 61.3869 44.0041 61.6679 44.4773C69.8682 31.1807 73.1733 15.3742 70.0194 11.3452C65.2469 5.24748 58.6404 3.4829 53.4072 3.56829C51.7689 3.59497 50.28 3.81554 49.0082 4.09126C58.0374 8.46712 62.0593 17.845 62.3439 20.8779ZM69.4182 48.1648C64.6777 49.1431 62.3972 48.6219 61.2908 47.9406C61.113 48.0687 60.9351 48.1772 60.7696 48.2786C60.1079 48.6788 59.0602 49.3156 58.8041 53.2272C58.9517 53.2557 59.0816 53.2717 59.2416 53.3055L60.0154 53.3749C62.3635 53.4816 65.439 52.8235 67.2427 51.9856C71.1294 50.1819 73.248 47.375 69.4182 48.1648ZM35.6618 51.8078C35.596 51.2777 35.3096 50.849 34.7866 50.5057L34.5945 50.4221C33.9523 50.1392 33.2248 49.8173 32.0633 49.8173H32.0561C31.8302 49.8351 31.6061 49.8511 31.3802 49.8511C31.2877 49.8511 31.197 49.8386 31.1045 49.8351C30.2613 50.4843 29.0624 50.986 26.0954 51.5961C20.7945 52.9462 23.9234 54.54 25.9566 54.7873C27.924 55.28 32.6005 55.8794 35.7062 53.3482C35.6974 52.5513 35.6831 52.0034 35.6618 51.8078Z" fill="#0277BD"/>
<path d="M33.2746 27.584C32.7552 28.1212 31.9352 28.5908 31.0298 28.4449C29.5569 28.2065 28.4274 26.4295 28.5092 25.7625C28.5875 25.0972 29.8451 24.7503 31.3162 24.9887C31.8267 25.0723 32.2909 25.2164 32.6823 25.3943C32.1131 24.1704 31.0831 23.4642 29.5124 23.2917C26.7286 22.9822 23.774 24.4373 23.1799 25.243C23.1923 25.4387 23.2155 25.6895 23.2386 25.9848C23.404 28.0251 23.71 31.8264 23.1497 35.8341C22.7797 38.4756 23.8487 41.4711 25.937 43.6519C27.2836 45.0572 28.8561 45.9466 30.4072 46.2098C30.6046 45.3596 30.9568 44.5307 31.3197 43.6751C31.5207 43.2037 31.7342 42.702 31.9352 42.1595L32.2233 41.4C33.0114 39.3454 33.8243 37.2198 33.8403 33.0342C33.8474 31.4244 33.6499 29.5869 33.2746 27.584ZM58.4732 33.8205C58.2882 32.5237 58.0979 31.1807 58.1441 29.7239C58.185 28.404 58.3309 27.1588 58.4714 25.9546C58.5817 25.0065 58.6671 24.0957 58.7169 23.1974C56.424 23.3878 54.9014 24.0495 54.1792 25.1683C54.478 25.0669 54.816 24.9869 55.1895 24.9389C56.7762 24.7325 57.9342 25.1897 58.0676 26.072C58.1655 26.7177 57.6176 27.326 57.3775 27.5591C56.8847 28.0376 56.2639 28.3453 55.6324 28.4271C55.5186 28.4413 55.403 28.4485 55.2909 28.4485C54.663 28.4485 54.0635 28.2332 53.6028 27.9148C53.8021 31.4244 56.3902 36.1187 57.6638 38.4222C57.936 38.915 58.1459 39.3081 58.3202 39.6461C59.0193 37.6556 58.7614 35.8412 58.4732 33.8205Z" fill="#0277BD"/>
</svg>
