<svg width="70" height="70" viewBox="0 0 70 70" fill="none" xmlns="http://www.w3.org/2000/svg">
<path d="M34.7126 0.0299997C16.9625 0.0299997 18.0851 7.70502 18.0851 7.70502V15.68H34.9651V18.1801H11.3625C11.3625 18.1801 0 16.78 0 34.7926C0 52.8052 10.0325 52.0727 10.0325 52.0727H15.825V43.6701C15.825 43.6701 15.5 33.6376 25.5751 33.6376H42.4801C42.4801 33.6376 51.9101 33.7876 51.9101 24.5076V9.28003C51.9101 9.28003 53.3402 0 34.8051 0L34.7126 0.0299997ZM25.3826 5.37252C25.9827 5.35738 26.5738 5.52053 27.0812 5.84135C27.5885 6.16218 27.9894 6.62625 28.233 7.17489C28.4766 7.72353 28.552 8.33209 28.4498 8.92361C28.3475 9.51513 28.0721 10.063 27.6584 10.498C27.2448 10.933 26.7114 11.2356 26.1258 11.3674C25.5401 11.4993 24.9285 11.4545 24.3684 11.2388C23.8082 11.023 23.3245 10.646 22.9786 10.1554C22.6327 9.6648 22.4401 9.08263 22.4251 8.48252V8.43252C22.4251 7.62759 22.7448 6.85562 23.314 6.28645C23.8832 5.71728 24.6551 5.39752 25.4601 5.39752L25.3826 5.37252Z" fill="url(#paint0_linear_98_164)"/>
<path d="M35.2125 69.5551C52.9625 69.5551 51.84 61.8551 51.84 61.8551V53.9051H34.9625V51.4051H58.6375C58.6375 51.4051 70.0001 52.6751 70.0001 34.7675C70.0001 16.86 59.9675 17.4875 59.9675 17.4875H54.1V25.78C54.1 25.78 54.425 35.8125 44.35 35.8125H27.4374C27.4374 35.8125 17.9999 35.67 17.9999 44.9501V60.2801C17.9999 60.2801 16.5699 69.5601 35.105 69.5601H35.205L35.2125 69.5551ZM44.5425 64.1876C43.9424 64.2028 43.3513 64.0396 42.8439 63.7188C42.3365 63.398 41.9357 62.9339 41.6921 62.3852C41.4485 61.8366 41.373 61.2281 41.4753 60.6365C41.5776 60.045 41.853 59.4971 42.2666 59.0621C42.6803 58.6271 43.2137 58.3245 43.7993 58.1927C44.3849 58.0608 44.9965 58.1056 45.5567 58.3214C46.1169 58.5371 46.6005 58.9141 46.9464 59.4047C47.2923 59.8953 47.485 60.4775 47.5 61.0776V61.1526C47.5 61.9576 47.1803 62.7295 46.6111 63.2987C46.0419 63.8679 45.2699 64.1876 44.465 64.1876H44.5425Z" fill="url(#paint1_linear_98_164)"/>
<defs>
<linearGradient id="paint0_linear_98_164" x1="6.91792" y1="6.83727" x2="40.1347" y2="39.9788" gradientUnits="userSpaceOnUse">
<stop stop-color="#387EB8"/>
<stop offset="1" stop-color="#366994"/>
</linearGradient>
<linearGradient id="paint1_linear_98_164" x1="26.5687" y1="28.4264" x2="64.5193" y2="61.558" gradientUnits="userSpaceOnUse">
<stop stop-color="#FFE052"/>
<stop offset="1" stop-color="#FFC331"/>
</linearGradient>
</defs>
</svg>
