<svg width="75" height="67" viewBox="0 0 75 67" fill="none" xmlns="http://www.w3.org/2000/svg">
<path d="M37.5001 39.9978C41.1985 39.9978 44.1966 36.9997 44.1966 33.3013C44.1966 29.603 41.1985 26.6049 37.5001 26.6049C33.8018 26.6049 30.8037 29.603 30.8037 33.3013C30.8037 36.9997 33.8018 39.9978 37.5001 39.9978Z" fill="#00D8FF"/>
<path d="M37.5 48.6548C29.4513 48.8495 21.4227 47.7646 13.7143 45.4405C10.1535 44.3117 6.83232 42.5336 3.91875 40.1959C2.80696 39.3973 1.88108 38.3676 1.20467 37.1775C0.528248 35.9874 0.117294 34.6651 0 33.3012C0 28.8736 4.86428 24.5343 13.0125 21.695C20.927 19.1791 29.1962 17.9598 37.5 18.0843C45.693 17.9698 53.8515 19.1671 61.6661 21.6307C65.0954 22.724 68.3039 24.4162 71.1429 26.6289C72.2356 27.3903 73.1476 28.3826 73.8142 29.5357C74.4808 30.6888 74.8856 31.9743 75 33.3012C75 37.903 69.5625 42.5664 60.8036 45.4646C53.2444 47.7129 45.3853 48.7888 37.5 48.6548ZM37.5 21.2878C29.5557 21.1817 21.6451 22.3408 14.0652 24.7218C6.56518 27.3387 3.20357 30.9173 3.20357 33.2932C3.20357 35.7789 6.81696 39.687 14.7509 42.4003C22.1252 44.6125 29.8034 45.6422 37.5 45.4512C45.0439 45.5861 52.5641 44.5654 59.7991 42.4244C68.0357 39.695 71.7857 35.7816 71.7857 33.3012C71.6506 32.4501 71.3404 31.6362 70.8747 30.9109C70.4091 30.1857 69.7981 29.565 69.0804 29.0878C66.5404 27.1248 63.6742 25.6251 60.6134 24.6575C53.1376 22.3104 45.3348 21.1729 37.5 21.2878Z" fill="#00D8FF"/>
<path d="M22.2858 66.7004C21.0363 66.729 19.8015 66.4259 18.7073 65.8218C14.8715 63.6093 13.543 57.2289 15.1528 48.7513C16.9277 40.6381 20.0032 32.8654 24.2599 25.7343C28.253 18.5801 33.3649 12.1108 39.4019 6.57179C42.0621 4.14689 45.131 2.21253 48.4662 0.8584C49.6725 0.293058 50.9884 0 52.3206 0C53.6529 0 54.9688 0.293058 56.1751 0.8584C60.1635 3.15661 61.484 10.1959 59.6224 19.2307C57.7927 26.9037 54.7971 34.2506 50.7403 41.0155C46.8878 48.0853 41.9368 54.4982 36.0724 60.0147C33.3156 62.5346 30.1162 64.5226 26.6358 65.878C25.2425 66.3952 23.7718 66.6732 22.2858 66.7004ZM27.0349 27.3254C22.9745 34.1539 20.0269 41.5853 18.3028 49.3405C16.8215 57.1486 18.2439 61.8441 20.3117 63.0388C22.4546 64.2789 27.6564 63.103 33.9724 57.5852C39.5707 52.3002 44.2963 46.1616 47.9733 39.3977C51.8598 32.9303 54.7332 25.9061 56.4939 18.5691C58.2456 10.0647 56.7323 4.85751 54.584 3.62001C53.7789 3.31151 52.9185 3.17341 52.0572 3.21444C51.196 3.25548 50.3526 3.47475 49.5805 3.8584C46.6118 5.08344 43.8824 6.82259 41.518 8.9959C35.7501 14.3016 30.8671 20.4948 27.0537 27.3414L27.0349 27.3254Z" fill="#00D8FF"/>
<path d="M52.7063 66.7352C49.0768 66.7352 44.467 64.5388 39.667 60.4111C33.5242 54.8217 28.3258 48.2756 24.2732 41.0263C20.0698 33.9933 17.0188 26.3331 15.2357 18.3361C14.4624 14.8178 14.3192 11.1902 14.8125 7.62184C14.9266 6.29811 15.3296 5.01552 15.9933 3.86451C16.657 2.7135 17.5651 1.72211 18.6536 0.960236C22.6366 -1.34601 29.3947 1.02452 36.292 7.14774C42.0257 12.5643 46.8948 18.8282 50.7295 25.721C54.9303 32.5897 58.0133 40.0822 59.8634 47.9183C60.67 51.5657 60.7944 55.3309 60.2304 59.0236C60.0962 60.3854 59.6691 61.7021 58.9783 62.8834C58.2876 64.0647 57.3496 65.0826 56.2286 65.8674C55.1522 66.464 53.9366 66.7635 52.7063 66.7352ZM27.0456 39.4138C30.9333 46.3418 35.899 52.6067 41.7563 57.9736C47.7804 63.1567 52.5589 64.271 54.6134 63.0629C56.7563 61.8174 58.3366 56.7335 56.708 48.5076C54.9238 41.0261 51.9667 33.8743 47.9464 27.3174C44.2871 20.7204 39.6395 14.7224 34.1652 9.53166C27.6723 3.76738 22.4063 2.47899 20.2607 3.72184C19.592 4.26528 19.0432 4.94146 18.649 5.7077C18.2549 6.47394 18.0238 7.31359 17.9706 8.17363C17.5447 11.356 17.6834 14.5886 18.3804 17.7227C20.0955 25.3704 23.0216 32.6949 27.0482 39.4192L27.0456 39.4138Z" fill="#00D8FF"/>
</svg>
