<svg width="70" height="76" viewBox="0 0 70 76" fill="none" xmlns="http://www.w3.org/2000/svg">
<path d="M32.3797 15.7068C29.285 11.0657 28.616 4.86291 28.4701 2.31396C20.6091 4.01389 12.7992 7.06315 13.2503 9.30889C13.3071 9.59126 13.6634 9.93049 14.2547 10.2602L13.3299 11.9147C12.2004 11.2817 11.5655 10.5521 11.3931 9.68033C10.8833 7.13896 13.762 4.84017 20.1903 2.65129C24.5794 1.15603 29.0064 0.263423 29.194 0.227416L30.3254 0V1.15792C30.3254 1.23752 30.3747 9.28425 33.9565 14.6569L32.3797 15.7068Z" fill="#CFD8DC"/>
<path d="M35.5389 75.8261H35.0632C19.5383 75.8261 2.26042 70.9499 0.219361 62.7895C-1.02574 57.8053 3.0469 52.298 11.9957 46.8685L12.9812 48.4869C4.92876 53.3745 1.04943 58.2886 2.05953 62.3309C3.83148 69.4149 20.2054 73.8305 34.5667 73.9291C36.2742 71.3763 45.4486 56.3802 40.2123 36.2671L42.0449 35.7896C48.0127 58.7055 35.9464 75.2784 35.8251 75.4433L35.5389 75.8261Z" fill="#CFD8DC"/>
<path d="M7.45308 68.8255C6.4316 68.8255 5.9256 68.7137 5.84222 68.6928C5.50867 68.6113 5.24714 68.3555 5.15618 68.0257C5.06332 67.696 5.15807 67.3416 5.40065 67.1009C5.5371 66.9645 19.0399 53.4408 20.863 42.5059L22.7316 42.8167C21.1644 52.2241 11.9009 62.9487 8.2225 66.8981C11.8972 66.6878 21.1757 64.967 38.9881 54.9967C25.0873 53.473 22.8889 42.3448 22.8662 42.2254L24.7291 41.8824C24.8182 42.3486 27.0525 53.274 42.2477 53.274C42.2534 53.274 42.2572 53.274 42.2629 53.274C42.693 53.274 43.0664 53.5621 43.1763 53.9752C43.29 54.3884 43.1081 54.8262 42.7385 55.0422C21.4467 67.3776 11.1221 68.8236 7.45308 68.8255Z" fill="#CFD8DC"/>
<path d="M16.1574 73.3624C15.7651 73.3624 15.4088 73.1199 15.2705 72.7465C15.1208 72.3466 15.2572 71.8937 15.6059 71.6436C15.6704 71.5962 19.0418 69.1079 22.6293 63.6309C21.2496 63.0207 19.8529 62.3081 18.4676 61.4762C16.7847 60.4661 15.5131 59.3821 14.5636 58.2715C9.69312 59.5564 5.19787 60.0643 1.25031 59.7289L1.4095 57.8413C4.96477 58.1426 9.00708 57.7219 13.3886 56.6284C10.4076 51.5343 13.1442 46.4781 13.1821 46.4099L14.8384 47.3328C14.7114 47.564 12.4411 51.8243 15.3103 56.1129C19.4815 54.9152 23.9312 53.1433 28.5364 50.8407C29.5958 47.3631 30.424 43.408 30.858 38.9468C30.8883 38.6417 31.0626 38.3707 31.3279 38.2172C31.5933 38.0637 31.9173 38.0505 32.1959 38.1774C32.2566 38.2059 38.3816 41.0031 42.8162 42.8281C43.1384 42.9607 43.362 43.2602 43.398 43.607C43.4359 43.9538 43.2786 44.2911 42.9887 44.4882C38.6507 47.4446 34.3412 50.0087 30.1435 52.1483C28.8131 56.365 27.1662 59.8748 25.4834 62.744C32.4991 65.365 38.5882 65.4048 38.6659 65.4048C39.098 65.4048 39.4751 65.6966 39.5831 66.1154C39.6912 66.5343 39.5035 66.9721 39.1264 67.1824C30.5225 71.9619 16.8264 73.3075 16.2484 73.3624C16.2181 73.3605 16.1877 73.3624 16.1574 73.3624ZM24.4676 64.3928C22.4966 67.4515 20.5598 69.648 19.1119 71.0826C22.8984 70.5254 29.537 69.305 35.0462 67.0289C32.4082 66.7048 28.5895 65.9847 24.4676 64.3928ZM16.6179 57.6916C17.3627 58.4345 18.2913 59.1603 19.4417 59.852C20.8365 60.6897 22.2522 61.4004 23.6489 62.003C25.0778 59.6076 26.4935 56.7327 27.7082 53.3461C23.8782 55.1692 20.1599 56.6246 16.6179 57.6916ZM32.6034 40.4421C32.2149 43.7927 31.616 46.8495 30.8731 49.6335C34.019 47.9563 37.2294 46.0403 40.4663 43.8988C37.5307 42.6556 34.3033 41.2096 32.6034 40.4421Z" fill="#CFD8DC"/>
<path d="M22.6009 14.4238C22.3791 14.4238 22.1593 14.3442 21.9849 14.1964C18.9338 11.5849 15.3425 6.27099 15.1909 6.04547C14.9464 5.6835 14.9843 5.20024 15.2781 4.87807C15.5699 4.554 16.0513 4.4782 16.4303 4.68476C16.4512 4.69045 18.208 5.41439 30.1075 7.3967C30.4505 7.45355 30.7329 7.69234 30.8466 8.0183C30.9622 8.34426 30.8883 8.70813 30.6571 8.96587C27.3254 12.6671 23.1163 14.2969 22.9382 14.3632C22.8283 14.403 22.7127 14.4238 22.6009 14.4238ZM18.2857 7.12001C19.4815 8.72898 21.2042 10.9027 22.7809 12.3676C23.7493 11.9261 25.9211 10.8174 27.9811 8.96018C23.086 8.12443 20.0993 7.52936 18.2857 7.12001Z" fill="#CFD8DC"/>
<path d="M30.0279 40.5767C29.899 40.5767 29.7682 40.5501 29.647 40.4971C29.2698 40.3303 29.0424 39.9399 29.086 39.5305C29.6394 34.3208 21.6457 32.2305 21.5642 32.2115C21.2345 32.1282 20.9729 31.8723 20.8839 31.5445C20.7948 31.2166 20.8877 30.8641 21.1283 30.6234C21.5206 30.2311 30.8674 20.962 42.5945 15.8717C42.9224 15.7296 43.2938 15.7827 43.5705 16.0044C43.8453 16.228 43.9723 16.5862 43.9002 16.9311C41.6526 27.8167 31.1839 39.7561 30.7405 40.2583C30.5528 40.4648 30.2913 40.5767 30.0279 40.5767ZM23.6072 30.8831C25.851 31.7264 29.7815 33.6784 30.7765 37.2431C33.5225 33.8167 39.3841 25.9235 41.573 18.4169C33.2591 22.4156 26.2585 28.4459 23.6072 30.8831Z" fill="#B71C1C"/>
<path d="M13.419 48.0814L12.5188 46.4137C16.0873 44.4901 20.1751 40.95 23.5238 36.8357C20.6735 38.7877 19.0418 40.1237 18.9906 40.1673L17.7797 38.7081C17.8536 38.6474 21.1227 35.9658 26.556 32.6057C28.0475 30.2065 29.194 27.739 29.7834 25.3739C29.8839 24.9721 29.971 24.5836 30.0412 24.2084C26.393 22.9065 23.0273 22.1351 20.7152 21.8035C20.3646 21.7542 20.0728 21.5135 19.9553 21.1819C19.8378 20.8502 19.9155 20.4788 20.1524 20.2211C20.3134 20.0467 24.1625 15.9229 28.9723 13.6582C29.3456 13.482 29.7929 13.5691 30.0734 13.8743C30.2003 14.0126 32.8024 16.9349 32.141 22.9804C34.3298 23.8332 36.585 24.8698 38.7569 26.1035C43.9855 23.7536 49.923 21.6386 56.247 20.3613C56.573 20.2969 56.935 20.4144 57.1586 20.6797C57.3803 20.945 57.441 21.3108 57.3159 21.6329C54.8522 27.9475 48.2458 34.6923 47.9653 34.9765C47.7739 35.1698 47.5124 35.2665 47.2395 35.257C46.9685 35.2419 46.7183 35.113 46.5477 34.9007C44.4252 32.2324 41.6507 30.0227 38.6583 28.2242C34.5364 30.1269 30.8864 32.1623 27.8864 34.0024C24.0582 39.9778 18.28 45.4642 13.419 48.0814ZM40.7335 27.3032C43.1782 28.8799 45.4543 30.7333 47.3361 32.89C48.9053 31.1882 52.6709 26.8862 54.8067 22.6146C49.7846 23.7706 45.0316 25.444 40.7335 27.3032ZM31.8396 24.8888C31.7771 25.1977 31.7051 25.5142 31.6255 25.8363C31.2275 27.4263 30.5945 29.0599 29.7834 30.6898C31.8605 29.5034 34.1593 28.2792 36.64 27.0928C35.0519 26.2514 33.4315 25.5198 31.8396 24.8888ZM22.8359 20.2457C24.9414 20.6588 27.5358 21.3335 30.3046 22.3038C30.5926 18.8111 29.6489 16.6715 29.0784 15.7239C26.4707 17.0846 24.1871 18.9987 22.8359 20.2457Z" fill="#B71C1C"/>
<path d="M22.8396 29.3954C22.8396 37.6961 15.9224 44.2911 10.9382 49.1048C10.1044 49.9197 7.28062 50.0523 7.28062 50.0523C7.98182 49.3322 8.77778 48.5741 9.63058 47.7592C14.3684 43.173 20.9445 36.9001 20.9445 29.3954C20.9445 20.5072 17.3627 17.0012 14.539 14.1964C13.2882 12.9267 12.2269 11.7138 11.5826 10.2356L12.1701 9.98924C12.8144 10.2735 13.5535 10.5957 14.122 10.842C14.5769 11.5053 15.1833 12.1497 15.8845 12.8509C18.7841 15.7504 22.8396 19.7302 22.8396 29.3954Z" fill="#B71C1C"/>
<path d="M70 31.8477C70 31.8477 68.8534 32.0107 68.5313 32.0486C51.9299 33.8868 34.7979 38.6626 25.0001 42.5855C21.4562 44.0068 17.7796 45.7314 14.4253 47.6645C14.4063 47.6834 14.3874 47.6834 14.3495 47.7024C12.3785 48.8394 7.58384 51.1894 3.69882 53.2551C9.38422 47.2096 20.0349 42.5476 24.2799 40.842C33.8883 36.9949 50.3949 32.3518 66.6361 30.3619C64.7221 28.1256 60.0411 23.3878 50.8307 19.8629C45.4486 17.7782 37.2616 16.6032 30.0412 15.5609C18.5567 13.9122 12.0184 12.813 11.3931 9.68602C11.2604 9.06062 11.3552 8.43523 11.6394 7.82879C12.2648 8.85216 13.1555 9.57231 13.743 9.98924C14.0273 10.1788 14.2358 10.2925 14.3116 10.3304L14.3305 10.3493C17.0216 11.7707 24.2799 12.813 30.3254 13.6847C37.6406 14.746 45.9223 15.9399 51.513 18.0814C64.5325 23.1035 69.024 30.2861 69.2135 30.5893C69.3841 30.8736 70 31.8477 70 31.8477Z" fill="#B71C1C"/>
</svg>
